<svg version="1.1" id="Layer_1" xmlns="http://www.w3.org/2000/svg" xmlns:xlink="http://www.w3.org/1999/xlink" x="0px" y="0px"
	 width="100%" height="100%" viewBox="61.906 82.529 137.367 94.086" enable-background="new 0 0 256 256" xml:space="preserve">
<path fill="#000000" opacity="1.000000" stroke="none" 
	d="
M189.984421,132.996155 
	C189.850861,138.484055 190.177368,143.472107 189.499054,148.464981 
	C188.241852,157.718948 183.058517,164.275085 175.106842,166.246002 
	C165.547440,168.615387 155.737442,165.463623 150.765213,157.784943 
	C144.780243,148.542297 140.639938,138.286209 135.562057,128.540604 
	C132.714203,123.074974 130.216690,117.413071 127.135193,112.086113 
	C122.574959,104.202858 112.793068,102.985687 107.620369,110.115517 
	C101.384544,118.710686 97.898300,128.864624 93.012047,138.633713 
	C97.542931,140.348465 101.545189,139.405365 105.437927,139.644470 
	C107.264305,139.756668 109.104332,139.715271 110.935783,139.661713 
	C114.530411,139.556564 117.385254,140.553528 117.439590,144.732895 
	C117.494644,148.968414 114.361847,149.942886 110.982277,150.039261 
	C105.320625,150.200714 99.628227,150.433044 93.992859,150.025696 
	C88.942833,149.660675 85.741852,151.161896 84.121124,156.143753 
	C83.306808,158.646805 81.792717,160.926575 80.555466,163.286560 
	C78.961853,166.326279 76.339012,167.211731 73.419838,165.779480 
	C70.620239,164.405884 69.905800,161.545837 71.211334,158.896622 
	C80.192757,140.671402 88.408188,121.978149 98.715988,104.525726 
	C106.982544,90.529396 128.319641,92.361259 136.093216,106.833031 
	C143.340088,120.324295 149.956512,134.154053 156.862366,147.828796 
	C158.214645,150.506516 159.526199,153.217667 162.271774,154.841187 
	C170.583054,159.755814 179.284149,155.127670 179.578659,145.379486 
	C179.845291,136.555099 179.680801,127.716606 179.640625,118.884636 
	C179.625153,115.481491 180.009003,112.182777 184.192017,111.860703 
	C188.725067,111.511650 189.663605,114.970528 189.823669,118.504944 
	C190.034576,123.162239 189.944412,127.833153 189.984421,132.996155 
z"/>
<path fill="#000000" opacity="1.000000" stroke="none" 
	d="
M191.272980,101.968903 
	C190.790482,105.934746 188.877625,108.135468 185.212173,108.476814 
	C182.072571,108.769188 179.714218,107.442719 178.369247,104.573471 
	C177.075668,101.813789 177.897568,99.349030 179.869843,97.280846 
	C183.757370,93.204277 189.432480,95.363106 191.272980,101.968903 
z"/>
</svg>