<?xml version="1.0" encoding="UTF-8"?>
<svg version="1.1" xmlns="http://www.w3.org/2000/svg" width="96" height="96" viewBox="0 0 96 96">
<path d="M0 0 C3.1875 0.4375 3.1875 0.4375 5.25 2.8125 C6.38822899 4.78107636 7.34701954 6.78462351 8.296875 8.8515625 C12.97789971 18.912726 18.77258755 22.54037637 28.7109375 27.23828125 C31.1875 28.4375 31.1875 28.4375 32.1875 29.4375 C32.625 32.25 32.625 32.25 32.1875 35.4375 C29.51344521 37.75970548 26.97773405 39.07435037 23.7734375 40.546875 C13.712274 45.22789971 10.08462363 51.02258755 5.38671875 60.9609375 C4.1875 63.4375 4.1875 63.4375 3.1875 64.4375 C0.375 64.875 0.375 64.875 -2.8125 64.4375 C-5.13470548 61.76344521 -6.44935037 59.22773405 -7.921875 56.0234375 C-12.60289971 45.962274 -18.39758755 42.33462363 -28.3359375 37.63671875 C-30.8125 36.4375 -30.8125 36.4375 -31.8125 35.4375 C-32.25 32.625 -32.25 32.625 -31.8125 29.4375 C-29.13844521 27.11529452 -26.60273405 25.80064963 -23.3984375 24.328125 C-13.337274 19.64710029 -9.70962363 13.85241245 -5.01171875 3.9140625 C-3.3702878 0.52426699 -3.3702878 0.52426699 0 0 Z M-0.8125 11.4375 C-1.74965922 12.920838 -2.61157474 14.4519669 -3.4375 16 C-7.64228558 23.24043566 -13.11225561 28.16489613 -20.8125 31.4375 C-20.8125 32.0975 -20.8125 32.7575 -20.8125 33.4375 C-19.329162 34.37465922 -17.7980331 35.23657474 -16.25 36.0625 C-9.00956434 40.26728558 -4.08510387 45.73725561 -0.8125 53.4375 C-0.1525 53.4375 0.5075 53.4375 1.1875 53.4375 C2.12465922 51.954162 2.98657474 50.4230331 3.8125 48.875 C8.01728558 41.63456434 13.48725561 36.71010387 21.1875 33.4375 C21.1875 32.7775 21.1875 32.1175 21.1875 31.4375 C19.704162 30.50034078 18.1730331 29.63842526 16.625 28.8125 C9.38456434 24.60771442 4.46010387 19.13774439 1.1875 11.4375 C0.5275 11.4375 -0.1325 11.4375 -0.8125 11.4375 Z " fill="#4647d3" transform="translate(39.8125,7.5625)"/>
<path d="M0 0 C1.98 0 3.96 0 6 0 C6.20753906 0.54269531 6.41507813 1.08539063 6.62890625 1.64453125 C8.36392372 5.67354671 9.57348949 8.26331713 13.75 10 C14.8225 10.33 15.895 10.66 17 11 C17 12.98 17 14.96 17 17 C16.18595703 17.31130859 16.18595703 17.31130859 15.35546875 17.62890625 C11.32645329 19.36392372 8.73668287 20.57348949 7 24.75 C6.67 25.8225 6.34 26.895 6 28 C4.02 28 2.04 28 0 28 C-0.31130859 27.18595703 -0.31130859 27.18595703 -0.62890625 26.35546875 C-2.36392372 22.32645329 -3.57348949 19.73668287 -7.75 18 C-8.8225 17.67 -9.895 17.34 -11 17 C-11 15.02 -11 13.04 -11 11 C-10.45730469 10.79246094 -9.91460937 10.58492187 -9.35546875 10.37109375 C-5.32645329 8.63607628 -2.73668287 7.42651051 -1 3.25 C-0.67 2.1775 -0.34 1.105 0 0 Z M2 12 C2 13.32 2 14.64 2 16 C2.99 15.67 3.98 15.34 5 15 C4.67 14.01 4.34 13.02 4 12 C3.34 12 2.68 12 2 12 Z " fill="#4647d3" transform="translate(71,60)"/>
</svg>
